<?xml version="1.0" encoding="UTF-8"?>
<svg id="Layer_2" data-name="Layer 2" xmlns="http://www.w3.org/2000/svg" width="1730" height="748" viewBox="0 0 1730 748">
  <g id="Layer_3" data-name="Layer 3">
    <g>
      <line y1="136" x2="1730" y2="136" fill="none" stroke="#fff" stroke-miterlimit="10" stroke-width="2"/>
      <line y1="170" x2="1730" y2="170" fill="none" stroke="#fff" stroke-miterlimit="10" stroke-width="2"/>
      <line y1="204" x2="1730" y2="204" fill="none" stroke="#fff" stroke-miterlimit="10" stroke-width="2"/>
      <line y1="238" x2="1730" y2="238" fill="none" stroke="#fff" stroke-miterlimit="10" stroke-width="2"/>
      <line y1="272" x2="1730" y2="272" fill="none" stroke="#fff" stroke-miterlimit="10" stroke-width="2"/>
      <line y1="306" x2="1730" y2="306" fill="none" stroke="#fff" stroke-miterlimit="10" stroke-width="2"/>
      <line y1="544" x2="1730" y2="544" fill="none" stroke="#fff" stroke-miterlimit="10" stroke-width="2"/>
      <line y1="578" x2="1730" y2="578" fill="none" stroke="#fff" stroke-miterlimit="10" stroke-width="2"/>
      <line y1="612" x2="1730" y2="612" fill="none" stroke="#fff" stroke-miterlimit="10" stroke-width="2"/>
      <line y1="646" x2="1730" y2="646" fill="none" stroke="#fff" stroke-miterlimit="10" stroke-width="2"/>
      <line x1="34" x2="34" y2="748" fill="none" stroke="#fff" stroke-miterlimit="10" stroke-width="2"/>
      <line x1="68" x2="68" y2="748" fill="none" stroke="#fff" stroke-miterlimit="10" stroke-width="2"/>
      <line x1="102" x2="102" y2="748" fill="none" stroke="#fff" stroke-miterlimit="10" stroke-width="2"/>
      <line x1="136" x2="136" y2="748" fill="none" stroke="#fff" stroke-miterlimit="10" stroke-width="2"/>
      <line x1="170" x2="170" y2="748" fill="none" stroke="#fff" stroke-miterlimit="10" stroke-width="2"/>
      <line x1="204" x2="204" y2="748" fill="none" stroke="#fff" stroke-miterlimit="10" stroke-width="2"/>
      <line x1="238" x2="238" y2="748" fill="none" stroke="#fff" stroke-miterlimit="10" stroke-width="2"/>
      <line x1="272" x2="272" y2="748" fill="none" stroke="#fff" stroke-miterlimit="10" stroke-width="2"/>
      <line x1="306" x2="306" y2="748" fill="none" stroke="#fff" stroke-miterlimit="10" stroke-width="2"/>
      <line x1="340" x2="340" y2="748" fill="none" stroke="#fff" stroke-miterlimit="10" stroke-width="2"/>
      <line x1="374" x2="374" y2="748" fill="none" stroke="#fff" stroke-miterlimit="10" stroke-width="2"/>
      <line x1="408" x2="408" y2="748" fill="none" stroke="#fff" stroke-miterlimit="10" stroke-width="2"/>
      <line x1="442" x2="442" y2="748" fill="none" stroke="#fff" stroke-miterlimit="10" stroke-width="2"/>
      <line x1="476" x2="476" y2="748" fill="none" stroke="#fff" stroke-miterlimit="10" stroke-width="2"/>
      <line x1="510" x2="510" y2="748" fill="none" stroke="#fff" stroke-miterlimit="10" stroke-width="2"/>
      <line x1="782" x2="782" y2="748" fill="none" stroke="#fff" stroke-miterlimit="10" stroke-width="2"/>
      <line x1="578" x2="578" y2="748" fill="none" stroke="#fff" stroke-miterlimit="10" stroke-width="2"/>
      <line x1="612" x2="612" y2="748" fill="none" stroke="#fff" stroke-miterlimit="10" stroke-width="2"/>
      <line x1="646" x2="646" y2="748" fill="none" stroke="#fff" stroke-miterlimit="10" stroke-width="2"/>
      <line x1="680" x2="680" y2="748" fill="none" stroke="#fff" stroke-miterlimit="10" stroke-width="2"/>
      <line x1="714" x2="714" y2="748" fill="none" stroke="#fff" stroke-miterlimit="10" stroke-width="2"/>
      <line x1="748" x2="748" y2="748" fill="none" stroke="#fff" stroke-miterlimit="10" stroke-width="2"/>
      <line x1="544" x2="544" y2="748" fill="none" stroke="#fff" stroke-miterlimit="10" stroke-width="2"/>
      <line x1="816" x2="816" y2="748" fill="none" stroke="#fff" stroke-miterlimit="10" stroke-width="2"/>
      <line x1="1088" x2="1088" y2="748" fill="none" stroke="#fff" stroke-miterlimit="10" stroke-width="2"/>
      <line x1="884" x2="884" y2="748" fill="none" stroke="#fff" stroke-miterlimit="10" stroke-width="2"/>
      <line x1="918" x2="918" y2="748" fill="none" stroke="#fff" stroke-miterlimit="10" stroke-width="2"/>
      <line x1="952" x2="952" y2="748" fill="none" stroke="#fff" stroke-miterlimit="10" stroke-width="2"/>
      <line x1="986" x2="986" y2="748" fill="none" stroke="#fff" stroke-miterlimit="10" stroke-width="2"/>
      <line x1="1020" x2="1020" y2="748" fill="none" stroke="#fff" stroke-miterlimit="10" stroke-width="2"/>
      <line x1="1054" x2="1054" y2="748" fill="none" stroke="#fff" stroke-miterlimit="10" stroke-width="2"/>
      <line x1="850" x2="850" y2="748" fill="none" stroke="#fff" stroke-miterlimit="10" stroke-width="2"/>
      <line x1="1290" x2="1290" y2="748" fill="none" stroke="#fff" stroke-miterlimit="10" stroke-width="2"/>
      <line x1="1120" x2="1120" y2="748" fill="none" stroke="#fff" stroke-miterlimit="10" stroke-width="2"/>
      <line x1="1154" x2="1154" y2="748" fill="none" stroke="#fff" stroke-miterlimit="10" stroke-width="2"/>
      <line x1="1188" x2="1188" y2="748" fill="none" stroke="#fff" stroke-miterlimit="10" stroke-width="2"/>
      <line x1="1222" x2="1222" y2="748" fill="none" stroke="#fff" stroke-miterlimit="10" stroke-width="2"/>
      <line x1="1256" x2="1256" y2="748" fill="none" stroke="#fff" stroke-miterlimit="10" stroke-width="2"/>
      <line x1="1324" x2="1324" y2="748" fill="none" stroke="#fff" stroke-miterlimit="10" stroke-width="2"/>
      <line x1="1596" x2="1596" y2="748" fill="none" stroke="#fff" stroke-miterlimit="10" stroke-width="2"/>
      <line x1="1392" x2="1392" y2="748" fill="none" stroke="#fff" stroke-miterlimit="10" stroke-width="2"/>
      <line x1="1426" x2="1426" y2="748" fill="none" stroke="#fff" stroke-miterlimit="10" stroke-width="2"/>
      <line x1="1460" x2="1460" y2="748" fill="none" stroke="#fff" stroke-miterlimit="10" stroke-width="2"/>
      <line x1="1494" x2="1494" y2="748" fill="none" stroke="#fff" stroke-miterlimit="10" stroke-width="2"/>
      <line x1="1528" x2="1528" y2="748" fill="none" stroke="#fff" stroke-miterlimit="10" stroke-width="2"/>
      <line x1="1562" x2="1562" y2="748" fill="none" stroke="#fff" stroke-miterlimit="10" stroke-width="2"/>
      <line x1="1358" x2="1358" y2="748" fill="none" stroke="#fff" stroke-miterlimit="10" stroke-width="2"/>
      <line x1="1662" x2="1662" y2="748" fill="none" stroke="#fff" stroke-miterlimit="10" stroke-width="2"/>
      <line x1="1629" x2="1629" y2="748" fill="none" stroke="#fff" stroke-miterlimit="10" stroke-width="2"/>
      <line x1="1696" x2="1696" y2="748" fill="none" stroke="#fff" stroke-miterlimit="10" stroke-width="2"/>
      <line y1="34" x2="1730" y2="34" fill="none" stroke="#fff" stroke-miterlimit="10" stroke-width="2"/>
      <line y1="68" x2="1730" y2="68" fill="none" stroke="#fff" stroke-miterlimit="10" stroke-width="2"/>
      <line y1="102" x2="1730" y2="102" fill="none" stroke="#fff" stroke-miterlimit="10" stroke-width="2"/>
      <line y1="680" x2="1730" y2="680" fill="none" stroke="#fff" stroke-miterlimit="10" stroke-width="2"/>
      <line y1="714" x2="1730" y2="714" fill="none" stroke="#fff" stroke-miterlimit="10" stroke-width="2"/>
      <line y1="340" x2="1730" y2="340" fill="none" stroke="#fff" stroke-miterlimit="10" stroke-width="2"/>
      <line y1="374" x2="1730" y2="374" fill="none" stroke="#fff" stroke-miterlimit="10" stroke-width="2"/>
      <line y1="408" x2="1730" y2="408" fill="none" stroke="#fff" stroke-miterlimit="10" stroke-width="2"/>
      <line y1="442" x2="1730" y2="442" fill="none" stroke="#fff" stroke-miterlimit="10" stroke-width="2"/>
      <line y1="476" x2="1730" y2="476" fill="none" stroke="#fff" stroke-miterlimit="10" stroke-width="2"/>
      <line y1="510" x2="1730" y2="510" fill="none" stroke="#fff" stroke-miterlimit="10" stroke-width="2"/>
    </g>
  </g>
</svg>